<svg xmlns="http://www.w3.org/2000/svg" width="430" height="430" style="width:100%;height:100%;transform:translate3d(0,0,0);content-visibility:visible" viewBox="0 0 430 430"><defs><clipPath id="o"><path d="M0 0h430v430H0z"/></clipPath><clipPath id="G"><path d="M0 0h430v430H0z"/></clipPath><clipPath id="F"><path d="M0 0h430v430H0z"/></clipPath><clipPath id="C"><path d="M0 0h430v430H0z"/></clipPath><clipPath id="D"><path d="M0 0h430v430H0z"/></clipPath><clipPath id="B"><path d="M0 0h430v430H0z"/></clipPath><clipPath id="u"><path d="M0 0h430v430H0z"/></clipPath><clipPath id="y"><path d="M0 0h430v430H0z"/></clipPath><clipPath id="v"><path d="M0 0h430v430H0z"/></clipPath><clipPath id="t"><path d="M0 0h430v430H0z"/></clipPath><clipPath id="p"><path d="M0 0h430v430H0z"/></clipPath><clipPath id="q"><path d="M0 0h430v430H0z"/></clipPath><filter id="a" width="100%" height="100%" x="0%" y="0%" filterUnits="objectBoundingBox"><feComponentTransfer in="SourceGraphic"><feFuncA tableValues="1.0 0.0" type="table"/></feComponentTransfer></filter><filter id="c" width="100%" height="100%" x="0%" y="0%" filterUnits="objectBoundingBox"><feComponentTransfer in="SourceGraphic"><feFuncA tableValues="1.0 0.0" type="table"/></feComponentTransfer></filter><filter id="e" width="100%" height="100%" x="0%" y="0%" filterUnits="objectBoundingBox"><feComponentTransfer in="SourceGraphic"><feFuncA tableValues="1.0 0.0" type="table"/></feComponentTransfer></filter><filter id="g" width="100%" height="100%" x="0%" y="0%" filterUnits="objectBoundingBox"><feComponentTransfer in="SourceGraphic"><feFuncA tableValues="1.0 0.0" type="table"/></feComponentTransfer></filter><filter id="i" width="100%" height="100%" x="0%" y="0%" filterUnits="objectBoundingBox"><feComponentTransfer in="SourceGraphic"><feFuncA tableValues="1.0 0.0" type="table"/></feComponentTransfer></filter><filter id="k" width="100%" height="100%" x="0%" y="0%" filterUnits="objectBoundingBox"><feComponentTransfer in="SourceGraphic"><feFuncA tableValues="1.0 0.0" type="table"/></feComponentTransfer></filter><filter id="m" width="100%" height="100%" x="0%" y="0%" filterUnits="objectBoundingBox"><feComponentTransfer in="SourceGraphic"><feFuncA tableValues="1.0 0.0" type="table"/></feComponentTransfer></filter><mask id="E" mask-type="alpha"><g filter="url(#a)"><path fill="#fff" d="M0 0h430v430H0z" opacity="0"/><use xmlns:ns1="http://www.w3.org/1999/xlink" ns1:href="#b"/></g></mask><mask id="A" mask-type="alpha"><g filter="url(#c)"><path fill="#fff" d="M0 0h430v430H0z" opacity="0"/><use xmlns:ns2="http://www.w3.org/1999/xlink" ns2:href="#d"/></g></mask><mask id="z" mask-type="alpha"><g filter="url(#e)"><path fill="#fff" d="M0 0h430v430H0z" opacity="0"/><use xmlns:ns3="http://www.w3.org/1999/xlink" ns3:href="#f"/></g></mask><mask id="x" mask-type="alpha"><g filter="url(#g)"><path fill="#fff" d="M0 0h430v430H0z" opacity="0"/><use xmlns:ns4="http://www.w3.org/1999/xlink" ns4:href="#h"/></g></mask><mask id="w" mask-type="alpha"><g filter="url(#i)"><path fill="#fff" d="M0 0h430v430H0z" opacity="0"/><use xmlns:ns5="http://www.w3.org/1999/xlink" ns5:href="#j"/></g></mask><mask id="s" mask-type="alpha"><g filter="url(#k)"><path fill="#fff" d="M0 0h430v430H0z" opacity="0"/><use xmlns:ns6="http://www.w3.org/1999/xlink" ns6:href="#l"/></g></mask><mask id="r" mask-type="alpha"><g filter="url(#m)"><path fill="#fff" d="M0 0h430v430H0z" opacity="0"/><use xmlns:ns7="http://www.w3.org/1999/xlink" ns7:href="#n"/></g></mask><g id="b" style="display:none"><path/><path/><path/><path/><path/><path/></g><g id="f" style="display:none"><path/><path/></g><g id="j" style="display:none"><path/><path/></g><g id="n" style="display:none"><path/><path/></g><path id="d" style="display:none"/><path id="h" style="display:none"/><path id="l" style="display:none"/></defs><g clip-path="url(#o)"><g clip-path="url(#p)" style="display:none"><path fill="none" class="secondary" style="display:none"/><g clip-path="url(#q)" style="display:none"><path fill="none" class="primary" style="display:none"/><path fill="none" class="primary" style="display:none"/><path fill="none" class="secondary" style="display:none"/><path fill="none" class="secondary" style="display:none"/><g mask="url(#r)" style="display:none"><path fill="none" class="primary"/></g><path fill="none" class="primary" style="display:none"/><path fill="none" class="primary" style="display:none"/><path fill="none" class="primary" style="display:none"/><path fill="none" class="primary" style="display:none"/><g mask="url(#s)" style="display:none"><path fill="none" class="primary"/></g><g fill="none" style="display:none"><path class="primary"/><path class="primary"/></g></g></g><g fill="none" clip-path="url(#t)" style="display:none"><g style="display:none"><path class="primary"/><path class="primary"/><path class="secondary"/><path class="secondary"/><path class="primary"/><path class="primary"/><path class="secondary"/></g><path class="secondary" style="display:none"/><path class="secondary" style="display:none"/><path class="secondary" style="display:none"/><path class="secondary" style="display:none"/><path class="secondary" style="display:none"/><path class="secondary" style="display:none"/><path class="secondary" style="display:none"/><path class="secondary" style="display:none"/><path class="secondary" style="display:none"/><path class="secondary" style="display:none"/><path class="secondary" style="display:none"/><path class="secondary" style="display:none"/></g><g clip-path="url(#u)" style="display:none"><g clip-path="url(#v)" style="display:none"><path fill="none" class="primary" style="display:none"/><path fill="none" class="primary" style="display:none"/><path fill="none" class="secondary" style="display:none"/><path fill="none" class="secondary" style="display:none"/><g mask="url(#w)" style="display:none"><path fill="none" class="primary"/></g><path fill="none" class="primary" style="display:none"/><path fill="none" class="primary" style="display:none"/><path fill="none" class="primary" style="display:none"/><path fill="none" class="primary" style="display:none"/><g mask="url(#x)" style="display:none"><path fill="none" class="primary"/></g><g fill="none" style="display:none"><path class="primary"/><path class="primary"/></g></g><g clip-path="url(#y)" style="display:none"><path fill="none" class="primary" style="display:none"/><path fill="none" class="primary" style="display:none"/><path fill="none" class="secondary" style="display:none"/><path fill="none" class="secondary" style="display:none"/><g mask="url(#z)" style="display:none"><path fill="none" class="primary"/></g><path fill="none" class="primary" style="display:none"/><path fill="none" class="primary" style="display:none"/><path fill="none" class="primary" style="display:none"/><path fill="none" class="primary" style="display:none"/><g mask="url(#A)" style="display:none"><path fill="none" class="primary"/></g><g fill="none" style="display:none"><path class="primary"/><path class="primary"/></g></g><path fill="none" class="secondary" style="display:none"/></g><g fill="none" clip-path="url(#B)" style="display:none"><g style="display:none"><path class="primary"/><path class="primary"/><path class="secondary"/><path class="secondary"/><path class="primary"/><path class="primary"/><path class="secondary"/></g><path class="secondary" style="display:none"/><path class="secondary" style="display:none"/><path class="secondary" style="display:none"/><path class="secondary" style="display:none"/><path class="secondary" style="display:none"/><path class="secondary" style="display:none"/><path class="secondary" style="display:none"/><path class="secondary" style="display:none"/><path class="secondary" style="display:none"/></g><g fill="none" clip-path="url(#C)" style="display:block"><g clip-path="url(#D)" mask="url(#E)" style="display:none"><path class="secondary" style="display:none"/><path class="secondary" style="display:none"/><path class="primary" style="display:none"/><path class="primary" style="display:none"/><path class="primary" style="display:none"/><path class="secondary" style="display:none"/></g><path stroke="#08A88A" stroke-linecap="round" stroke-linejoin="round" stroke-width="13.3" d="M-29.756 30.067c12.93 12.93 33.888 12.93 46.818 0s12.925-33.882 0-46.807c-12.93-12.93-33.888-12.919-46.818 0s-12.93 33.877 0 46.807z" class="secondary" style="display:block" transform="matrix(.9 0 0 .9 250.614 165.97)"/><path stroke="#08A88A" stroke-linecap="round" stroke-linejoin="round" stroke-width="13.3" d="m-32.955-34.543-2.637 3.788c-8.874 21.667-5.792 43.894 8.008 57.694 13.8 13.8 36.027 16.882 57.694 8.008l4.098-1.728" class="secondary" style="display:block" transform="matrix(.9 0 0 .9 164.353 253.646)"/><path stroke="#121331" stroke-linecap="round" stroke-linejoin="round" stroke-width="13.3" d="M53.821-55.51S37.948-41.87.794-41.87s-53.975-14.162-53.975-14.162M68.524 135.587c-1.804 9.652-10.273 15.836-20.095 15.836h-96.858c-9.822 0-18.281-6.176-20.094-15.836-4.281-22.853-7.385-52.121-5.794-95.005 1.583-42.665 8.261-66.022 20.596-96.291 12.266-30.102 30.38-55.481 53.841-73.71 23.525 18.28 42.064 43.348 54.331 73.55 12.272 30.216 19.343 61.251 20.652 94.88 1.669 42.898-2.298 73.723-6.579 96.576z" class="primary" style="display:block" transform="rotate(45 -54.8 393.876) scale(.9)"/><path stroke="#121331" stroke-linecap="round" stroke-linejoin="round" stroke-width="13.3" d="M-37.535-8.496s22.479 25.64 21.701 73.951C35.5 11.589 26.043-58.789 26.043-58.789" class="primary" style="display:block" transform="matrix(.9 0 0 .9 247.05 296.07)"/><path stroke="#121331" stroke-linecap="round" stroke-linejoin="round" stroke-width="13.3" d="M10.195 39.234s-24.638-19.255-72.648-20.398C-9.443-29.465 59.402-22.096 59.402-22.096" class="primary" style="display:block" transform="matrix(.9 0 0 .9 118.498 167.518)"/><path stroke="#08A88A" stroke-linecap="round" stroke-linejoin="round" stroke-width="12" d="M-90.79 119.409c-11.262 11.262-40.165 19.774-62.811 22.028 3.264-23.656 10.765-51.55 22.027-62.812s29.522-11.262 40.784 0 11.262 29.522 0 40.784z" class="secondary" style="display:block" transform="translate(215.113 214.904)"/><path class="secondary" style="display:none"/><path class="secondary" style="display:none"/><path class="secondary" style="display:none"/><path class="secondary" style="display:none"/><path class="secondary" style="display:none"/><path class="secondary" style="display:none"/><path class="secondary" style="display:none"/><path class="secondary" style="display:none"/><path class="secondary" style="display:none"/><path class="secondary" style="display:none"/><path class="secondary" style="display:none"/><path class="secondary" style="display:none"/><path class="secondary" style="display:none"/><path class="secondary" style="display:none"/><path class="secondary" style="display:none"/><g style="display:none"><path class="secondary"/><path class="secondary"/><path class="secondary"/><path class="secondary"/><path class="secondary"/><path class="secondary"/></g></g><g fill="none" clip-path="url(#F)" style="display:none"><path class="secondary" style="display:none"/><path class="secondary" style="display:none"/><path class="primary" style="display:none"/><path class="primary" style="display:none"/><path class="primary" style="display:none"/></g><g fill="none" clip-path="url(#G)" style="display:none"><path class="secondary" style="display:none"/><g style="display:none"><path class="primary"/><path class="primary"/><path class="secondary"/><path class="primary"/><path class="primary"/></g><path class="secondary" style="display:none"/><path class="secondary" style="display:none"/><path class="secondary" style="display:none"/><path class="secondary" style="display:none"/><path class="secondary" style="display:none"/><path class="secondary" style="display:none"/><path class="secondary" style="display:none"/><path class="secondary" style="display:none"/></g></g></svg>